<svg version="1.1" id="Uploaded to svgrepo.com" xmlns="http://www.w3.org/2000/svg" xmlns:xlink="http://www.w3.org/1999/xlink" x="0px" y="0px"
	 width="32px" height="32px" viewBox="0 0 32 32" style="enable-background:new 0 0 32 32;" xml:space="preserve">
<style type="text/css">
	.hatch_een{fill:#265AA5;}
	.hatch_twee{fill:#FFC5BB;}
</style>
<g>
	<path class="hatch_twee" d="M14.833,4L4,14.833v-1.414L13.419,4H14.833z M14.831,12.002l7.071-7.071l-0.707-0.707l-7.071,7.071
		L14.831,12.002z M17.419,4L4,17.419v1.414L18.833,4H17.419z M20.831,18.002l7.071-7.071l-0.707-0.707l-7.071,7.071L20.831,18.002z
		 M21.243,13.172c0,0.265-0.105,0.52-0.293,0.707l4.952-4.947l-0.707-0.707l-4.243,4.243C21.138,12.655,21.243,12.908,21.243,13.172
		z M18.828,10.757c0.256,0,0.522,0.116,0.707,0.293l0.124,0.124l4.243-4.243l-0.707-0.707l-4.549,4.548
		C18.715,10.758,18.758,10.757,18.828,10.757z M17.295,20.124l-7.071,7.071l0.707,0.707l7.071-7.071L17.295,20.124z M18.833,28
		L28,18.833v-1.414L17.419,28H18.833z M13.419,28h1.414L28,14.833v-1.414L13.419,28z M13.879,20.95
		c-0.195,0.195-0.451,0.293-0.707,0.293c-0.255,0-0.509-0.097-0.704-0.291l-4.243,4.243l0.707,0.707L13.879,20.95z M11.295,14.124
		l-7.071,7.071l0.707,0.707l7.071-7.071L11.295,14.124z M11.05,19.536c-0.188-0.188-0.293-0.442-0.293-0.707
		c0-0.072,0.003-0.115,0.018-0.184l-4.551,4.551l0.707,0.707l4.243-4.243L11.05,19.536z"/>
	<path class="hatch_een" d="M20.243,13.172L17.414,16l2.828,2.828l-1.414,1.414L16,17.414l-2.828,2.828l-1.414-1.414L14.586,16
		l-2.828-2.828l1.414-1.414L16,14.586l2.828-2.828L20.243,13.172z M18.121,11.05L16,13.172l-2.121-2.121
		c-0.195-0.195-0.451-0.293-0.707-0.293s-0.512,0.098-0.707,0.293l-1.414,1.414c-0.188,0.188-0.293,0.442-0.293,0.707
		c0,0.265,0.105,0.52,0.293,0.707L13.172,16l-2.121,2.121c-0.188,0.188-0.293,0.442-0.293,0.707s0.105,0.52,0.293,0.707l1.414,1.414
		c0.195,0.195,0.451,0.293,0.707,0.293s0.512-0.098,0.707-0.293L16,18.828l2.121,2.121c0.195,0.195,0.451,0.293,0.707,0.293
		s0.512-0.098,0.707-0.293l1.414-1.414c0.188-0.188,0.293-0.442,0.293-0.707s-0.105-0.52-0.293-0.707L18.828,16l2.121-2.121
		c0.188-0.188,0.293-0.442,0.293-0.707c0-0.265-0.105-0.52-0.293-0.707l-1.414-1.414c-0.195-0.195-0.471-0.293-0.715-0.293
		C18.564,10.757,18.317,10.855,18.121,11.05z M28,11.029v9.941L20.971,28h-9.941L4,20.971v-9.941L11.029,4h9.941L28,11.029z
		 M11.029,3c-0.265,0-0.52,0.105-0.707,0.293l-7.029,7.029C3.105,10.51,3,10.764,3,11.029v9.941c0,0.265,0.105,0.52,0.293,0.707
		l7.029,7.029C10.51,28.895,10.764,29,11.029,29h9.941c0.265,0,0.52-0.105,0.707-0.293l7.029-7.029
		C28.895,21.49,29,21.236,29,20.971v-9.941c0-0.265-0.105-0.52-0.293-0.707l-7.029-7.029C21.49,3.105,21.236,3,20.971,3H11.029z"/>
</g>
</svg>